# Blender v3.0.1 OBJ File: 'untitled.blend'
# www.blender.org
mtllib bed.mtl
o Cube.001_Cube.002
v -0.633676 -0.372737 1.000000
v -0.633676 0.000000 1.000000
v -0.633676 -0.372737 -1.000000
v -0.156087 0.077996 0.662572
v -0.477589 0.077996 0.662572
v -0.477589 0.077996 0.889721
v -0.633676 -0.372737 0.552293
v -0.633676 0.000000 0.552293
v -0.156087 0.077996 0.889721
v -0.565242 0.041059 0.951650
v -0.565242 0.041059 0.600643
v -0.633676 -0.372737 0.322718
v -0.068434 0.041059 0.951650
v -0.068434 0.041059 0.600643
v -0.633676 0.022338 0.552293
v -0.633676 0.022338 0.322718
v -0.563686 0.000000 -0.917162
v -0.633676 -0.082838 -1.000000
v -0.099293 0.000000 0.622446
v -0.534383 0.000000 0.622446
v -0.633676 0.000000 0.322718
v -0.563686 0.000000 0.239880
v -0.534383 0.000000 0.929847
v -0.099293 0.000000 0.929847
v 0.000000 -0.372737 -1.000000
v 0.000000 -0.372737 1.000000
v 0.000000 0.000000 1.000000
v 0.000000 0.000000 0.552293
v 0.000000 -0.372737 0.552293
v 0.000000 -0.372737 0.322718
v 0.000000 0.022338 0.552293
v 0.000000 0.022338 0.322718
v 0.000000 0.000000 -0.917162
v 0.000000 -0.082838 -1.000000
v 0.000000 0.000000 0.322718
v 0.000000 0.000000 0.239880
v -0.538821 -0.422370 -0.845333
v -0.538821 -0.354591 -0.845333
v -0.538821 -0.422370 -0.913112
v -0.538821 -0.354591 -0.913112
v -0.471042 -0.422370 -0.845333
v -0.471042 -0.354591 -0.845333
v -0.471042 -0.422370 -0.913112
v -0.471042 -0.354591 -0.913112
v -0.538821 -0.422370 0.814583
v -0.538821 -0.354591 0.814583
v -0.538821 -0.422370 0.746804
v -0.538821 -0.354591 0.746804
v -0.471042 -0.422370 0.814583
v -0.471042 -0.354591 0.814583
v -0.471042 -0.422370 0.746804
v -0.471042 -0.354591 0.746804
v 0.633676 -0.372737 1.000000
v 0.633676 0.000000 1.000000
v 0.633676 -0.372737 -1.000000
v 0.156087 0.077996 0.662572
v 0.477589 0.077996 0.662572
v 0.477589 0.077996 0.889721
v 0.633676 -0.372737 0.552293
v 0.633676 0.000000 0.552293
v 0.156087 0.077996 0.889721
v 0.565242 0.041059 0.951650
v 0.565242 0.041059 0.600643
v 0.633676 -0.372737 0.322718
v 0.068434 0.041059 0.951650
v 0.068434 0.041059 0.600643
v 0.633676 0.022338 0.552293
v 0.633676 0.022338 0.322718
v 0.563686 0.000000 -0.917162
v 0.633676 -0.082838 -1.000000
v 0.099293 0.000000 0.622446
v 0.534383 0.000000 0.622446
v 0.633676 0.000000 0.322718
v 0.563686 0.000000 0.239880
v 0.534383 0.000000 0.929847
v 0.099293 0.000000 0.929847
v 0.538821 -0.422370 -0.845333
v 0.538821 -0.354591 -0.845333
v 0.538821 -0.422370 -0.913112
v 0.538821 -0.354591 -0.913112
v 0.471042 -0.422370 -0.845333
v 0.471042 -0.354591 -0.845333
v 0.471042 -0.422370 -0.913112
v 0.471042 -0.354591 -0.913112
v 0.538821 -0.422370 0.814583
v 0.538821 -0.354591 0.814583
v 0.538821 -0.422370 0.746804
v 0.538821 -0.354591 0.746804
v 0.471042 -0.422370 0.814583
v 0.471042 -0.354591 0.814583
v 0.471042 -0.422370 0.746804
v 0.471042 -0.354591 0.746804
vt 0.375000 0.875000
vt 0.625000 0.875000
vt 0.625000 1.000000
vt 0.375000 1.000000
vt 0.625000 0.055963
vt 0.625000 0.000000
vt 0.625000 0.000000
vt 0.625000 0.055963
vt 0.000000 0.000000
vt 0.000000 0.000000
vt 0.000000 0.000000
vt 0.000000 0.000000
vt 0.375000 0.000000
vt 0.375000 0.055963
vt 0.625000 0.084660
vt 0.625000 0.055963
vt 0.625000 0.084660
vt 0.625000 0.055963
vt 0.625000 0.000000
vt 0.625000 0.000000
vt 0.625000 0.055963
vt 0.375000 0.084660
vt 0.576841 0.250000
vt 0.375000 0.250000
vt 0.750000 0.665340
vt 0.875000 0.665340
vt 0.875000 0.665340
vt 0.750000 0.665340
vt 0.875000 0.694037
vt 0.750000 0.694037
vt 0.750000 0.694037
vt 0.875000 0.694037
vt 0.875000 0.694037
vt 0.750000 0.694037
vt 0.875000 0.750000
vt 0.750000 0.750000
vt 0.861194 0.654985
vt 0.861194 0.510355
vt 0.875000 0.500000
vt 0.000000 0.000000
vt 0.000000 0.000000
vt 0.750000 0.694037
vt 0.875000 0.694037
vt 0.750000 0.510355
vt 0.750000 0.654985
vt 0.625000 1.000000
vt 0.625000 0.875000
vt 0.625000 0.875000
vt 0.625000 1.000000
vt 0.750000 0.500000
vt 0.875000 0.694037
vt 0.750000 0.694037
vt 0.625000 0.875000
vt 0.625000 1.000000
vt 0.125000 0.500000
vt 0.250000 0.500000
vt 0.250000 0.665340
vt 0.125000 0.665340
vt 0.250000 0.694037
vt 0.125000 0.694037
vt 0.000000 0.000000
vt 0.000000 0.000000
vt 0.250000 0.750000
vt 0.125000 0.750000
vt 0.576841 0.375000
vt 0.375000 0.375000
vt 0.375000 0.000000
vt 0.625000 0.000000
vt 0.625000 0.250000
vt 0.375000 0.250000
vt 0.625000 0.500000
vt 0.375000 0.500000
vt 0.625000 0.750000
vt 0.375000 0.750000
vt 0.625000 1.000000
vt 0.375000 1.000000
vt 0.125000 0.500000
vt 0.125000 0.750000
vt 0.875000 0.500000
vt 0.875000 0.750000
vt 0.375000 0.000000
vt 0.625000 0.000000
vt 0.625000 0.250000
vt 0.375000 0.250000
vt 0.625000 0.500000
vt 0.375000 0.500000
vt 0.625000 0.750000
vt 0.375000 0.750000
vt 0.625000 1.000000
vt 0.375000 1.000000
vt 0.125000 0.500000
vt 0.125000 0.750000
vt 0.875000 0.500000
vt 0.875000 0.750000
vt 0.375000 1.000000
vt 0.625000 1.000000
vt 0.625000 0.055963
vt 0.625000 0.055963
vt 0.625000 0.000000
vt 0.625000 0.000000
vt 0.000000 0.000000
vt 0.000000 0.000000
vt 0.000000 0.000000
vt 0.000000 0.000000
vt 0.375000 0.000000
vt 0.375000 0.055963
vt 0.625000 0.084660
vt 0.625000 0.084660
vt 0.625000 0.055963
vt 0.625000 0.055963
vt 0.625000 0.055963
vt 0.625000 0.000000
vt 0.625000 0.000000
vt 0.375000 0.084660
vt 0.375000 0.250000
vt 0.576841 0.250000
vt 0.875000 0.665340
vt 0.875000 0.665340
vt 0.875000 0.694037
vt 0.750000 0.694037
vt 0.750000 0.694037
vt 0.875000 0.694037
vt 0.875000 0.694037
vt 0.750000 0.750000
vt 0.875000 0.750000
vt 0.861194 0.654985
vt 0.875000 0.500000
vt 0.861194 0.510355
vt 0.000000 0.000000
vt 0.000000 0.000000
vt 0.750000 0.694037
vt 0.875000 0.694037
vt 0.625000 1.000000
vt 0.625000 1.000000
vt 0.625000 0.875000
vt 0.625000 0.875000
vt 0.875000 0.694037
vt 0.625000 1.000000
vt 0.625000 0.875000
vt 0.125000 0.500000
vt 0.125000 0.665340
vt 0.125000 0.694037
vt 0.125000 0.750000
vt 0.375000 0.000000
vt 0.375000 0.250000
vt 0.625000 0.250000
vt 0.625000 0.000000
vt 0.375000 0.500000
vt 0.625000 0.500000
vt 0.375000 0.750000
vt 0.625000 0.750000
vt 0.375000 1.000000
vt 0.625000 1.000000
vt 0.125000 0.500000
vt 0.125000 0.750000
vt 0.875000 0.750000
vt 0.875000 0.500000
vt 0.375000 0.000000
vt 0.375000 0.250000
vt 0.625000 0.250000
vt 0.625000 0.000000
vt 0.375000 0.500000
vt 0.625000 0.500000
vt 0.375000 0.750000
vt 0.625000 0.750000
vt 0.375000 1.000000
vt 0.625000 1.000000
vt 0.125000 0.500000
vt 0.125000 0.750000
vt 0.875000 0.750000
vt 0.875000 0.500000
vn 0.0000 0.0000 1.0000
vn 0.0000 1.0000 0.0000
vn 0.3883 0.9215 0.0000
vn -1.0000 0.0000 0.0000
vn -0.3883 0.9215 0.0000
vn -0.0000 0.0000 -1.0000
vn 0.0000 0.8588 -0.5122
vn -0.5091 0.8602 -0.0287
vn 0.7994 -0.6008 0.0000
vn 0.0000 -0.4690 -0.8832
vn -0.7994 -0.6008 0.0000
vn 0.0000 0.8588 0.5122
vn 0.0000 0.7071 -0.7071
vn 0.0000 -1.0000 0.0000
vn 0.0000 -0.4690 0.8832
vn 1.0000 0.0000 0.0000
vn 0.5091 0.8602 -0.0287
usemtl None
s off
f 26/1/1 27/2/1 2/3/1 1/4/1
f 8/5/2 2/6/2 23/7/2 20/8/2
f 13/9/3 14/10/3 4/11/3 9/12/3
f 1/13/4 2/6/4 8/5/4 7/14/4
f 21/15/4 8/5/4 15/16/4 16/17/4
f 11/18/5 10/19/5 6/20/5 5/21/5
f 12/22/4 21/15/4 18/23/4 3/24/4
f 35/25/6 21/26/6 16/27/6 32/28/6
f 32/28/2 16/27/2 15/29/2 31/30/2
f 14/31/7 11/32/7 5/33/7 4/34/7
f 7/14/4 8/5/4 21/15/4 12/22/4
f 4/34/2 5/33/2 6/35/2 9/36/2
f 22/37/8 17/38/8 18/39/8 21/26/8
f 24/40/9 19/41/9 14/10/9 13/9/9
f 19/42/10 20/43/10 11/32/10 14/31/10
f 20/8/11 23/7/11 10/19/11 11/18/11
f 33/44/2 17/38/2 22/37/2 36/45/2
f 10/46/12 13/47/12 9/48/12 6/49/12
f 21/26/2 35/25/2 36/45/2 22/37/2
f 17/38/13 33/44/13 34/50/13 18/39/13
f 8/51/1 28/52/1 31/30/1 15/29/1
f 28/52/2 8/51/2 20/43/2 19/42/2
f 2/3/2 27/2/2 24/53/2 23/54/2
f 3/55/14 25/56/14 30/57/14 12/58/14
f 12/58/14 30/57/14 29/59/14 7/60/14
f 27/61/2 28/62/2 19/41/2 24/40/2
f 7/60/14 29/59/14 26/63/14 1/64/14
f 23/54/15 24/53/15 13/47/15 10/46/15
f 3/24/6 18/23/6 34/65/6 25/66/6
f 37/67/4 38/68/4 40/69/4 39/70/4
f 39/70/6 40/69/6 44/71/6 43/72/6
f 43/72/16 44/71/16 42/73/16 41/74/16
f 41/74/1 42/73/1 38/75/1 37/76/1
f 39/77/14 43/72/14 41/74/14 37/78/14
f 44/71/2 40/79/2 38/80/2 42/73/2
f 45/81/4 46/82/4 48/83/4 47/84/4
f 47/84/6 48/83/6 52/85/6 51/86/6
f 51/86/16 52/85/16 50/87/16 49/88/16
f 49/88/1 50/87/1 46/89/1 45/90/1
f 47/91/14 51/86/14 49/88/14 45/92/14
f 52/85/2 48/93/2 46/94/2 50/87/2
f 26/1/1 53/95/1 54/96/1 27/2/1
f 60/97/2 72/98/2 75/99/2 54/100/2
f 65/101/5 61/102/5 56/103/5 66/104/5
f 53/105/16 59/106/16 60/97/16 54/100/16
f 73/107/16 68/108/16 67/109/16 60/97/16
f 63/110/3 57/111/3 58/112/3 62/113/3
f 64/114/16 55/115/16 70/116/16 73/107/16
f 35/25/6 32/28/6 68/117/6 73/118/6
f 32/28/2 31/30/2 67/119/2 68/117/2
f 66/120/7 56/121/7 57/122/7 63/123/7
f 59/106/16 64/114/16 73/107/16 60/97/16
f 56/121/2 61/124/2 58/125/2 57/122/2
f 74/126/17 73/118/17 70/127/17 69/128/17
f 76/129/11 65/101/11 66/104/11 71/130/11
f 71/131/10 66/120/10 63/123/10 72/132/10
f 72/98/9 63/110/9 62/113/9 75/99/9
f 33/44/2 36/45/2 74/126/2 69/128/2
f 62/133/12 58/134/12 61/135/12 65/136/12
f 73/118/2 74/126/2 36/45/2 35/25/2
f 69/128/13 70/127/13 34/50/13 33/44/13
f 60/137/1 67/119/1 31/30/1 28/52/1
f 28/52/2 71/131/2 72/132/2 60/137/2
f 54/96/2 75/138/2 76/139/2 27/2/2
f 55/140/14 64/141/14 30/57/14 25/56/14
f 64/141/14 59/142/14 29/59/14 30/57/14
f 27/61/2 76/129/2 71/130/2 28/62/2
f 59/142/14 53/143/14 26/63/14 29/59/14
f 75/138/15 62/133/15 65/136/15 76/139/15
f 55/115/6 25/66/6 34/65/6 70/116/6
f 77/144/16 79/145/16 80/146/16 78/147/16
f 79/145/6 83/148/6 84/149/6 80/146/6
f 83/148/4 81/150/4 82/151/4 84/149/4
f 81/150/1 77/152/1 78/153/1 82/151/1
f 79/154/14 77/155/14 81/150/14 83/148/14
f 84/149/2 82/151/2 78/156/2 80/157/2
f 85/158/16 87/159/16 88/160/16 86/161/16
f 87/159/6 91/162/6 92/163/6 88/160/6
f 91/162/4 89/164/4 90/165/4 92/163/4
f 89/164/1 85/166/1 86/167/1 90/165/1
f 87/168/14 85/169/14 89/164/14 91/162/14
f 92/163/2 90/165/2 86/170/2 88/171/2
