# Blender v3.0.1 OBJ File: 'untitled.blend'
# www.blender.org
mtllib can.mtl
o Cylinder.002_Cylinder.003
v -0.000000 0.070000 -0.928809
v 0.000000 -0.000010 -1.000010
v -0.000000 2.747278 -1.134960
v -0.000000 2.752378 -1.059379
v 0.656767 0.070000 -0.656767
v 0.707114 -0.000010 -0.707114
v 0.802538 2.747278 -0.802538
v 0.749094 2.752378 -0.749094
v 0.928809 0.070000 0.000000
v 1.000010 -0.000010 0.000000
v 1.134960 2.747278 0.000000
v 1.059379 2.752378 0.000000
v 0.656767 0.070000 0.656767
v 0.707114 -0.000010 0.707114
v 0.802538 2.747278 0.802538
v 0.749094 2.752378 0.749094
v -0.000000 0.070000 0.928809
v -0.000000 -0.000010 1.000010
v -0.000000 2.747278 1.134960
v -0.000000 2.752378 1.059379
v -0.656767 0.070000 0.656767
v -0.707114 -0.000010 0.707114
v -0.802538 2.747278 0.802538
v -0.749094 2.752378 0.749094
v -0.928809 0.070000 -0.000000
v -1.000010 -0.000010 -0.000000
v -1.134960 2.747278 -0.000000
v -1.059379 2.752378 -0.000000
v -0.656767 0.070000 -0.656767
v -0.707114 -0.000010 -0.707114
v -0.802538 2.747278 -0.802538
v -0.749094 2.752378 -0.749094
v -0.000000 2.534831 -1.120625
v 0.792402 2.534831 -0.792402
v 1.120625 2.534831 0.000000
v 0.792402 2.534831 0.792402
v -0.000000 2.534831 1.120625
v -0.792402 2.534831 0.792402
v -1.120625 2.534831 -0.000000
v -0.792402 2.534831 -0.792402
v 0.850973 2.753689 -0.850973
v -0.000000 2.753689 -1.203458
v -0.000000 2.528420 -1.188258
v 1.203458 2.753689 0.000000
v 0.850973 2.753689 0.850973
v -0.000000 2.753689 1.203458
v -0.850973 2.753689 0.850974
v -1.203458 2.753689 -0.000000
v -0.850974 2.753689 -0.850973
v 0.840226 2.528420 -0.840226
v 1.188258 2.528420 0.000000
v 0.840226 2.528420 0.840226
v -0.000000 2.528420 1.188258
v -0.840226 2.528420 0.840226
v -1.188258 2.528420 -0.000000
v -0.840226 2.528420 -0.840226
vt 0.875000 1.000000
vt 1.000000 1.000000
vt 1.000000 1.000000
vt 0.875000 1.000000
vt 0.750000 1.000000
vt 0.750000 1.000000
vt 0.625000 1.000000
vt 0.625000 1.000000
vt 0.500000 1.000000
vt 0.500000 1.000000
vt 0.375000 1.000000
vt 0.375000 1.000000
vt 0.250000 1.000000
vt 0.250000 1.000000
vt 0.125000 1.000000
vt 0.125000 1.000000
vt 0.000000 1.000000
vt 0.000000 1.000000
vt 0.375000 1.000000
vt 0.500000 1.000000
vt 0.875000 0.500000
vt 1.000000 0.500000
vt 0.000000 0.946888
vt 0.125000 0.946889
vt 0.125000 0.946889
vt 0.000000 0.946888
vt 0.750000 0.500000
vt 0.250000 1.000000
vt 0.625000 0.500000
vt 0.875000 0.946888
vt 1.000000 0.946888
vt 1.000000 0.946888
vt 0.875000 0.946888
vt 0.500000 0.500000
vt 0.750000 0.946888
vt 0.750000 0.946888
vt 0.375000 0.500000
vt 0.125000 1.000000
vt 0.250000 0.500000
vt 0.750000 1.000000
vt 0.875000 1.000000
vt 0.125000 0.500000
vt 0.625000 0.946889
vt 0.625000 0.946889
vt 0.000000 0.500000
vt 0.580294 0.419706
vt 0.750000 0.490000
vt 0.919706 0.419706
vt 0.990000 0.250000
vt 0.919706 0.080294
vt 0.750000 0.010000
vt 0.580294 0.080294
vt 0.510000 0.250000
vt 0.580294 0.419706
vt 0.510000 0.250000
vt 0.580294 0.080294
vt 0.750000 0.010000
vt 0.919706 0.080294
vt 0.990000 0.250000
vt 0.919706 0.419706
vt 0.750000 0.490000
vt 0.000000 0.500000
vt 0.125000 0.500000
vt 0.250000 0.500000
vt 0.250000 0.946888
vt 0.375000 0.500000
vt 0.375000 0.946889
vt 0.500000 0.500000
vt 0.500000 0.946888
vt 0.625000 0.500000
vt 0.750000 0.500000
vt 0.875000 0.500000
vt 1.000000 0.500000
vt 1.000000 1.000000
vt 0.625000 1.000000
vt 0.500000 0.946888
vt 0.375000 0.946889
vt 0.250000 0.946888
vt 0.000000 1.000000
vn 0.0279 0.9973 -0.0673
vn 0.0673 0.9973 -0.0279
vn 0.0673 0.9973 0.0279
vn 0.0279 0.9973 0.0673
vn -0.0279 0.9973 0.0673
vn -0.0673 0.9973 0.0279
vn -0.0673 0.9973 -0.0279
vn -0.0279 0.9973 -0.0673
vn 0.0386 0.9949 -0.0931
vn -0.3823 0.0449 0.9229
vn 0.0391 -0.9948 0.0943
vn -0.9229 0.0449 0.3823
vn 0.0931 0.9949 -0.0386
vn -0.9229 0.0449 -0.3823
vn -0.0391 -0.9948 0.0943
vn -0.3823 0.0449 -0.9229
vn -0.0943 -0.9948 0.0391
vn 0.3823 0.0449 -0.9229
vn 0.0931 0.9949 0.0386
vn 0.9229 0.0449 -0.3823
vn -0.0931 0.9949 0.0386
vn 0.9229 0.0449 0.3823
vn -0.0943 -0.9948 -0.0391
vn 0.3823 0.0449 0.9229
vn 0.0000 -1.0000 0.0000
vn 0.0000 1.0000 -0.0000
vn -0.3823 -0.0439 -0.9230
vn -0.9230 -0.0439 -0.3823
vn -0.9230 -0.0439 0.3823
vn -0.3823 -0.0439 0.9230
vn 0.3823 -0.0439 0.9230
vn 0.9230 -0.0439 0.3823
vn 0.9230 -0.0439 -0.3823
vn 0.3823 -0.0439 -0.9230
vn 0.3819 -0.0622 -0.9221
vn 0.9221 -0.0622 -0.3819
vn 0.9221 -0.0622 0.3819
vn 0.3819 -0.0622 0.9221
vn -0.3819 -0.0622 0.9221
vn -0.9221 -0.0622 0.3819
vn -0.9221 -0.0622 -0.3819
vn -0.3819 -0.0622 -0.9221
vn 0.0943 -0.9948 0.0391
vn 0.0943 -0.9948 -0.0391
vn -0.0386 0.9949 -0.0931
vn 0.0391 -0.9948 -0.0943
vn -0.0931 0.9949 -0.0386
vn -0.0391 -0.9948 -0.0943
vn 0.0386 0.9949 0.0931
vn -0.0386 0.9949 0.0931
usemtl None
s off
f 7/1/1 3/2/1 4/3/1 8/4/1
f 11/5/2 7/1/2 8/4/2 12/6/2
f 15/7/3 11/5/3 12/6/3 16/8/3
f 19/9/4 15/7/4 16/8/4 20/10/4
f 23/11/5 19/9/5 20/10/5 24/12/5
f 27/13/6 23/11/6 24/12/6 28/14/6
f 31/15/7 27/13/7 28/14/7 32/16/7
f 3/17/8 31/15/8 32/16/8 4/18/8
f 19/9/9 23/11/9 47/19/9 46/20/9
f 5/21/10 8/4/10 4/3/10 1/22/10
f 33/23/11 40/24/11 56/25/11 43/26/11
f 9/27/12 12/6/12 8/4/12 5/21/12
f 23/11/13 27/13/13 48/28/13 47/19/13
f 13/29/14 16/8/14 12/6/14 9/27/14
f 34/30/15 33/31/15 43/32/15 50/33/15
f 17/34/16 20/10/16 16/8/16 13/29/16
f 35/35/17 34/30/17 50/33/17 51/36/17
f 21/37/18 24/12/18 20/10/18 17/34/18
f 27/13/19 31/15/19 49/38/19 48/28/19
f 25/39/20 28/14/20 24/12/20 21/37/20
f 7/1/21 11/5/21 44/40/21 41/41/21
f 29/42/22 32/16/22 28/14/22 25/39/22
f 36/43/23 35/35/23 51/36/23 52/44/23
f 1/45/24 4/18/24 32/16/24 29/42/24
f 30/46/25 2/47/25 6/48/25 10/49/25 14/50/25 18/51/25 22/52/25 26/53/25
f 29/54/26 25/55/26 21/56/26 17/57/26 13/58/26 9/59/26 5/60/26 1/61/26
f 2/62/27 30/63/27 40/24/27 33/23/27
f 30/63/28 26/64/28 39/65/28 40/24/28
f 26/64/29 22/66/29 38/67/29 39/65/29
f 22/66/30 18/68/30 37/69/30 38/67/30
f 18/68/31 14/70/31 36/43/31 37/69/31
f 14/70/32 10/71/32 35/35/32 36/43/32
f 10/71/33 6/72/33 34/30/33 35/35/33
f 6/72/34 2/73/34 33/31/34 34/30/34
f 50/33/35 43/32/35 42/74/35 41/41/35
f 51/36/36 50/33/36 41/41/36 44/40/36
f 52/44/37 51/36/37 44/40/37 45/75/37
f 53/76/38 52/44/38 45/75/38 46/20/38
f 54/77/39 53/76/39 46/20/39 47/19/39
f 55/78/40 54/77/40 47/19/40 48/28/40
f 56/25/41 55/78/41 48/28/41 49/38/41
f 43/26/42 56/25/42 49/38/42 42/79/42
f 40/24/43 39/65/43 55/78/43 56/25/43
f 39/65/44 38/67/44 54/77/44 55/78/44
f 15/7/45 19/9/45 46/20/45 45/75/45
f 38/67/46 37/69/46 53/76/46 54/77/46
f 11/5/47 15/7/47 45/75/47 44/40/47
f 37/69/48 36/43/48 52/44/48 53/76/48
f 31/15/49 3/17/49 42/79/49 49/38/49
f 3/2/50 7/1/50 41/41/50 42/74/50
